<?xml version="1.0" standalone="no"?>
<!DOCTYPE svg PUBLIC "-//W3C//DTD SVG 20010904//EN"
 "http://www.w3.org/TR/2001/REC-SVG-20010904/DTD/svg10.dtd">
<svg version="1.0" xmlns="http://www.w3.org/2000/svg"
 width="1024.000000pt" height="222.000000pt" viewBox="0 0 1024.000000 222.000000"
 preserveAspectRatio="xMidYMid meet">

<g transform="translate(0.000000,222.000000) scale(0.100000,-0.100000)"
fill="#000000" stroke="none">
<path d="M897 2125 c-106 -20 -240 -72 -339 -131 -112 -66 -266 -220 -332
-332 -167 -281 -191 -615 -66 -915 17 -41 37 -83 45 -93 13 -18 16 -15 40 41
15 33 32 63 37 66 6 4 8 11 5 16 -4 6 7 54 22 109 l29 99 -21 75 c-30 110 -29
287 2 395 78 277 284 477 560 546 70 18 106 21 210 17 108 -4 139 -9 214 -35
115 -40 185 -83 276 -168 162 -152 242 -336 242 -555 0 -101 -20 -214 -53
-290 -15 -35 -18 -57 -13 -97 4 -30 2 -60 -4 -71 -8 -16 -6 -21 14 -30 14 -7
25 -17 25 -23 0 -6 19 -58 42 -115 l41 -105 33 47 c52 73 112 204 141 310 25
88 28 116 28 254 0 131 -4 168 -23 240 -52 190 -133 332 -267 465 -132 133
-281 218 -463 266 -103 28 -317 34 -425 14z"/>
<path d="M874 1970 c-359 -94 -597 -448 -545 -809 7 -45 18 -98 25 -118 l13
-38 7 37 c4 21 10 40 15 42 4 3 45 0 89 -8 79 -12 82 -12 102 9 19 20 100 64
207 111 29 13 53 28 53 34 0 5 -21 0 -46 -10 -25 -11 -50 -20 -56 -20 -7 0 -9
26 -6 73 5 75 29 138 72 192 l24 30 8 -30 c4 -16 17 -52 30 -79 30 -63 34
-114 11 -131 -17 -12 -17 -15 5 -59 18 -38 32 -52 77 -73 78 -39 148 -38 227
2 58 30 59 31 62 77 3 39 0 47 -17 53 -30 9 -27 51 8 116 16 30 32 70 36 89
l8 35 33 -39 c18 -21 41 -61 50 -90 17 -49 24 -160 11 -172 -3 -4 -27 6 -53
20 -26 14 -49 24 -52 21 -7 -7 -7 -7 80 -50 42 -21 99 -55 127 -76 49 -37 52
-38 114 -32 82 7 101 -8 112 -93 l8 -59 23 50 c41 88 57 183 52 313 -9 205
-70 345 -218 492 -71 72 -101 93 -180 132 -52 26 -125 54 -161 62 -91 22 -264
20 -355 -4z m326 -434 c0 -3 -4 -8 -10 -11 -5 -3 -10 -1 -10 4 0 6 5 11 10 11
6 0 10 -2 10 -4z"/>
<path d="M785 1378 c-20 -52 -32 -138 -18 -138 15 0 75 43 87 62 7 13 4 29
-14 67 -13 28 -27 51 -31 51 -4 0 -14 -19 -24 -42z"/>
<path d="M1271 1364 c-31 -57 -32 -74 -6 -74 8 0 18 -6 22 -14 8 -12 45 -36
57 -36 14 0 4 99 -14 138 -10 23 -21 42 -24 42 -2 0 -18 -25 -35 -56z"/>
<path d="M1270 1181 c0 -25 -43 -69 -86 -87 -116 -49 -234 -38 -296 28 -21 21
-38 45 -38 53 0 8 -9 15 -20 15 -19 0 -187 -83 -232 -114 -22 -16 -22 -16 7
-16 49 0 75 -11 75 -31 0 -29 16 -31 29 -2 11 25 14 26 73 19 33 -3 121 -6
195 -6 l135 0 28 -30 28 -30 5 29 c7 35 26 41 129 41 l76 0 13 -52 14 -53 5
55 c5 54 6 55 38 58 19 2 32 8 29 15 -5 16 -103 81 -159 105 -45 20 -48 20
-48 3z"/>
<path d="M395 1021 c-4 -20 -17 -76 -31 -124 -13 -48 -24 -90 -24 -92 0 -3 25
-5 55 -5 54 0 54 0 64 38 21 72 44 192 39 197 -2 3 -26 9 -51 14 l-47 8 -5
-36z"/>
<path d="M1511 1037 l-83 -10 5 -36 c3 -20 9 -68 13 -107 l6 -71 116 -7 c148
-9 149 -8 128 97 -9 42 -16 87 -16 100 0 49 -16 52 -169 34z m63 -54 c2 -10 7
-44 11 -75 5 -47 4 -58 -8 -58 -19 0 -24 15 -33 89 -6 52 -4 61 9 61 9 0 18
-8 21 -17z"/>
<path d="M502 923 c-12 -64 -21 -117 -20 -118 2 0 27 1 56 3 52 4 52 4 58 43
9 56 24 59 24 5 l0 -46 38 0 c35 0 40 3 60 46 13 26 25 45 27 43 2 -2 0 -24
-5 -48 l-8 -43 56 6 c31 4 57 8 59 10 1 1 6 44 11 94 l8 92 -46 0 c-25 0 -55
3 -67 6 -18 5 -25 -1 -42 -35 -12 -23 -24 -41 -26 -41 -3 0 -10 19 -15 43
l-11 42 -52 3 c-29 1 -59 5 -67 7 -12 4 -20 -19 -38 -112z"/>
<path d="M1240 1011 l-45 -6 -16 -70 c-9 -38 -19 -80 -23 -92 -7 -22 -5 -23
48 -23 49 0 56 2 56 20 0 31 46 27 54 -5 6 -23 11 -25 60 -25 l54 0 -35 105
-35 105 -37 -2 c-20 0 -56 -4 -81 -7z m52 -83 c1 -15 -1 -28 -7 -30 -5 -2 -11
15 -13 37 -4 45 14 39 20 -7z"/>
<path d="M886 968 c-3 -24 -8 -67 -11 -95 l-6 -53 115 0 c63 0 121 3 130 6 13
5 16 23 16 89 0 98 5 95 -142 95 l-97 0 -5 -42z m134 -59 c0 -46 -3 -59 -15
-59 -12 0 -15 13 -15 58 0 32 3 62 6 65 15 15 24 -8 24 -64z"/>
<path d="M555 729 c-49 -4 -125 -7 -167 -8 l-77 -1 -21 -46 c-11 -26 -20 -48
-20 -49 0 -1 21 0 47 3 37 4 45 2 40 -9 -3 -8 -16 -38 -28 -67 l-23 -52 64
-65 c36 -36 67 -65 70 -65 3 0 27 63 54 140 46 132 50 140 75 140 53 0 69 10
76 47 3 19 5 36 3 37 -2 1 -43 -2 -93 -5z"/>
<path d="M632 545 c-29 -106 -52 -195 -52 -199 0 -3 24 -4 53 0 28 3 113 9
187 12 l135 7 3 44 3 44 -80 -6 c-80 -6 -81 -6 -81 17 0 50 8 56 75 56 67 0
75 6 75 56 0 23 -3 24 -66 24 -64 0 -66 1 -60 23 3 12 6 28 6 35 0 8 21 12 70
12 l70 0 0 35 0 36 -143 -2 -144 -1 -51 -193z"/>
<path d="M1025 726 c-21 -15 -34 -98 -34 -233 -1 -125 2 -127 255 -139 190 -8
201 -1 173 110 l-11 43 -66 7 c-119 11 -119 11 -114 -28 5 -39 -13 -56 -35
-33 -10 10 -16 45 -20 116 -5 91 -4 101 11 101 10 0 21 -13 27 -30 10 -28 14
-30 64 -30 29 0 66 -3 83 -6 28 -6 30 -4 25 17 -16 74 -26 91 -59 105 -46 19
-273 20 -299 0z"/>
<path d="M1395 704 c9 -54 74 -319 85 -348 8 -21 17 -24 91 -30 113 -10 119
-3 79 93 -16 41 -30 76 -30 78 0 2 10 3 21 1 16 -2 28 -20 46 -65 14 -35 28
-63 32 -63 4 0 32 26 64 58 l57 57 -40 92 c-21 50 -42 103 -46 117 -5 22 -12
25 -80 31 -41 4 -77 5 -80 2 -3 -3 2 -33 12 -66 9 -34 14 -64 11 -68 -16 -15
-35 11 -51 71 l-18 66 -42 0 c-22 0 -58 3 -79 7 l-38 6 6 -39z"/>
<path d="M572 580 c-26 -66 -82 -229 -82 -238 0 -6 15 -21 33 -33 17 -12 26
-16 20 -9 -19 21 -16 54 18 172 17 60 28 114 26 121 -3 7 -9 1 -15 -13z"/>
<path d="M980 321 c-8 -5 -87 -12 -175 -16 -88 -4 -180 -10 -205 -14 l-45 -7
87 -42 c48 -23 132 -55 185 -69 87 -25 115 -28 253 -28 138 0 166 3 252 27 53
15 132 44 175 65 l78 37 -58 7 c-32 4 -63 11 -69 17 -7 7 -35 9 -72 6 -61 -6
-333 10 -371 20 -11 3 -27 2 -35 -3z"/>
</g>
</svg>
